<svg width="600" height="385" viewBox="0 0 600 385" fill="none" xmlns="http://www.w3.org/2000/svg">
<path d="M596.823 76.7573C622.608 -88.2391 370.287 70.2099 270.831 30.925C171.376 -8.35983 5.61775 85.9238 0.0924654 157.946C-5.43282 229.968 237.68 377.941 456.849 384.489C676.019 391.037 571.039 241.754 596.823 76.7573Z" fill="#DFE6E0"/>
<g clip-path="url(#clip0)">
<path d="M453.934 84.5662H165.063C164.952 84.5662 164.845 84.5248 164.767 84.4513C164.688 84.3778 164.644 84.278 164.644 84.174C164.644 84.07 164.688 83.9702 164.767 83.8967C164.845 83.8232 164.952 83.7818 165.063 83.7818H453.934C454.045 83.7818 454.152 83.8232 454.231 83.8967C454.309 83.9702 454.354 84.07 454.354 84.174C454.354 84.278 454.309 84.3778 454.231 84.4513C454.152 84.5248 454.045 84.5662 453.934 84.5662Z" fill="#CACACA"/>
<path d="M174.5 79.076C177.047 79.076 179.112 77.1447 179.112 74.7623C179.112 72.3799 177.047 70.4485 174.5 70.4485C171.953 70.4485 169.888 72.3799 169.888 74.7623C169.888 77.1447 171.953 79.076 174.5 79.076Z" fill="#3F3D56"/>
<path d="M190.432 79.076C192.979 79.076 195.044 77.1447 195.044 74.7623C195.044 72.3799 192.979 70.4485 190.432 70.4485C187.885 70.4485 185.82 72.3799 185.82 74.7623C185.82 77.1447 187.885 79.076 190.432 79.076Z" fill="#3F3D56"/>
<path d="M206.364 79.076C208.911 79.076 210.975 77.1447 210.975 74.7623C210.975 72.3799 208.911 70.4485 206.364 70.4485C203.817 70.4485 201.752 72.3799 201.752 74.7623C201.752 77.1447 203.817 79.076 206.364 79.076Z" fill="#3F3D56"/>
<path d="M346.106 124.493H272.891C271.977 124.493 271.1 124.154 270.453 123.549C269.806 122.944 269.443 122.123 269.443 121.268C269.443 120.412 269.806 119.592 270.453 118.987C271.1 118.382 271.977 118.042 272.891 118.042H346.106C347.02 118.042 347.898 118.382 348.544 118.987C349.191 119.592 349.554 120.412 349.554 121.268C349.554 122.123 349.191 122.944 348.544 123.549C347.898 124.154 347.02 124.493 346.106 124.493Z" fill="#E4E4E4"/>
<path d="M334.301 113.452H284.696C283.782 113.451 282.906 113.111 282.26 112.506C281.614 111.901 281.251 111.081 281.251 110.227C281.251 109.372 281.614 108.552 282.26 107.947C282.906 107.342 283.782 107.002 284.696 107.001H334.301C335.216 107.001 336.093 107.341 336.74 107.946C337.387 108.551 337.75 109.371 337.75 110.227C337.75 111.082 337.387 111.902 336.74 112.507C336.093 113.112 335.216 113.452 334.301 113.452Z" fill="#E4E4E4"/>
<path d="M216.52 215.636C233.423 215.636 247.126 202.819 247.126 187.008C247.126 171.198 233.423 158.381 216.52 158.381C199.617 158.381 185.914 171.198 185.914 187.008C185.914 202.819 199.617 215.636 216.52 215.636Z" fill="#F0F0F0"/>
<path d="M414.411 215.636C431.315 215.636 445.018 202.819 445.018 187.008C445.018 171.198 431.315 158.381 414.411 158.381C397.508 158.381 383.805 171.198 383.805 187.008C383.805 202.819 397.508 215.636 414.411 215.636Z" fill="#F0F0F0"/>
<path d="M309.596 215.636C326.499 215.636 340.202 202.819 340.202 187.008C340.202 171.198 326.499 158.381 309.596 158.381C292.693 158.381 278.99 171.198 278.99 187.008C278.99 202.819 292.693 215.636 309.596 215.636Z" fill="#F0F0F0"/>
<path d="M429.287 199.416C426.875 198.227 424.357 197.236 421.762 196.454L421.431 193.031L408.013 191.678L406.307 196.054L401.492 197.745C401.319 197.806 401.155 197.886 401.003 197.983H400.998C400.209 198.045 399.45 198.291 398.788 198.697C398.34 198.965 397.941 199.299 397.608 199.687C398.259 200.149 398.936 200.578 399.633 200.987L399.664 201.001C399.863 201.116 400.066 201.23 400.27 201.34C400.636 201.544 401.013 201.739 401.39 201.925L401.629 202.039C402.179 202.306 402.739 202.558 403.314 202.792C403.431 202.839 403.559 202.887 403.676 202.935C403.686 202.939 403.691 202.939 403.701 202.944C403.971 203.049 404.24 203.149 404.515 203.244C405.418 203.567 406.339 203.843 407.274 204.073C409.661 204.667 412.12 204.968 414.59 204.968C415.491 204.968 416.382 204.93 417.262 204.849C419.275 204.675 421.261 204.3 423.188 203.73C423.193 203.73 423.198 203.725 423.203 203.725C424.42 203.362 425.609 202.922 426.761 202.406C426.766 202.401 426.777 202.401 426.782 202.397C427.042 202.282 427.291 202.158 427.545 202.039L427.667 201.982C427.871 201.882 428.075 201.782 428.279 201.678C428.788 201.416 429.287 201.14 429.78 200.844C429.917 200.768 430.05 200.687 430.187 200.601C430.381 200.482 430.574 200.359 430.763 200.23C430.289 199.944 429.795 199.673 429.287 199.416Z" fill="#61CE78"/>
<path d="M414.196 189.514C419.533 189.514 423.86 185.467 423.86 180.474C423.86 175.482 419.533 171.435 414.196 171.435C408.858 171.435 404.531 175.482 404.531 180.474C404.531 185.467 408.858 189.514 414.196 189.514Z" fill="#A0616A"/>
<path d="M407.707 176.071C408.707 177.179 410.4 177.491 411.962 177.619C415.134 177.88 419.746 177.458 422.846 176.788C423.067 178.794 422.464 180.956 423.727 182.606C424.319 180.609 424.663 178.554 424.753 176.483C424.847 175.595 424.723 174.698 424.39 173.861C424.212 173.442 423.912 173.077 423.524 172.809C423.135 172.542 422.675 172.381 422.194 172.346C422.914 171.835 423.757 171.498 424.649 171.364L421.581 169.922L422.369 169.165L416.813 168.847L418.422 167.891C416 167.58 413.55 167.507 411.112 167.675C409.98 167.753 408.797 167.902 407.879 168.516C406.962 169.129 406.432 170.349 407.001 171.249C406.288 171.359 405.617 171.637 405.051 172.057C404.485 172.477 404.043 173.025 403.767 173.65C403.418 174.642 403.334 175.7 403.522 176.73C403.731 178.382 404.142 180.007 404.746 181.573L407.707 176.071Z" fill="#2F2E41"/>
<path d="M311.294 171.509C313.551 171.509 315.38 169.797 315.38 167.687C315.38 165.576 313.551 163.865 311.294 163.865C309.037 163.865 307.208 165.576 307.208 167.687C307.208 169.797 309.037 171.509 311.294 171.509Z" fill="#2F2E41"/>
<path d="M307.749 169.675C307.232 169.223 306.85 168.654 306.639 168.023C306.428 167.391 306.395 166.72 306.545 166.073C306.695 165.427 307.022 164.827 307.493 164.334C307.964 163.841 308.565 163.471 309.235 163.26C308.673 163.337 308.135 163.522 307.655 163.804C307.174 164.086 306.761 164.458 306.443 164.898C306.125 165.337 305.908 165.834 305.806 166.356C305.705 166.878 305.72 167.414 305.852 167.93C305.985 168.446 306.23 168.931 306.573 169.354C306.917 169.776 307.351 170.127 307.847 170.384C308.343 170.641 308.892 170.798 309.457 170.846C310.022 170.894 310.591 170.832 311.129 170.662C310.522 170.746 309.903 170.701 309.318 170.53C308.733 170.359 308.196 170.067 307.749 169.675L307.749 169.675Z" fill="#2F2E41"/>
<path d="M311.376 192.177C318.006 192.177 323.38 187.15 323.38 180.949C323.38 174.748 318.006 169.721 311.376 169.721C304.747 169.721 299.373 174.748 299.373 180.949C299.373 187.15 304.747 192.177 311.376 192.177Z" fill="#2F2E41"/>
<path d="M300.697 174.767C302.766 172.591 305.657 171.252 308.761 171.033C311.865 170.813 314.938 171.73 317.333 173.59C317.235 173.502 317.137 173.414 317.036 173.33C314.665 171.343 311.547 170.318 308.368 170.482C305.189 170.645 302.21 171.983 300.086 174.201C297.961 176.419 296.866 179.335 297.041 182.308C297.215 185.282 298.646 188.068 301.017 190.055C301.04 190.074 301.063 190.093 301.086 190.112C301.187 190.197 301.292 190.277 301.396 190.358C299.141 188.351 297.808 185.604 297.677 182.695C297.547 179.786 298.63 176.943 300.698 174.767H300.697Z" fill="#2F2E41"/>
<path d="M311.274 192.081C315.544 192.081 319.005 188.844 319.005 184.85C319.005 180.857 315.544 177.619 311.274 177.619C307.005 177.619 303.543 180.857 303.543 184.85C303.543 188.844 307.005 192.081 311.274 192.081Z" fill="#A0616A"/>
<path d="M325.109 203.691V206.117C324.634 206.401 324.154 206.667 323.665 206.919C323.469 207.019 323.273 207.115 323.078 207.212L322.96 207.266C322.715 207.381 322.475 207.5 322.226 207.61C322.221 207.614 322.211 207.614 322.206 207.619C321.098 208.115 319.955 208.538 318.785 208.887C318.78 208.887 318.776 208.892 318.771 208.892C316.918 209.44 315.008 209.8 313.074 209.967C312.227 210.045 311.37 210.082 310.504 210.082C308.13 210.082 305.765 209.793 303.471 209.221C302.301 208.933 301.153 208.571 300.035 208.136C300.026 208.132 300.021 208.132 300.011 208.127C299.898 208.081 299.776 208.036 299.663 207.99C299.11 207.765 298.572 207.523 298.043 207.266L297.813 207.157C297.25 206.877 296.697 206.584 296.154 206.268L296.125 206.255C295.288 205.767 294.481 205.237 293.707 204.666C293.311 204.382 292.929 204.085 292.557 203.774C292.361 203.618 292.165 203.453 291.979 203.293C291.264 202.675 290.586 202.021 289.948 201.334C290.033 200.857 290.157 200.387 290.32 199.928L290.325 199.924C290.354 199.845 290.389 199.769 290.428 199.695C290.455 199.629 290.486 199.565 290.521 199.502C291.397 197.969 292.983 197.589 294.95 197.506C296.061 197.461 297.29 197.511 298.587 197.497C299.272 197.493 299.981 197.47 300.691 197.41C305.169 197.03 304.357 194.558 304.558 193.226C304.758 191.935 306.002 193.052 306.085 193.125L306.089 193.13C308.624 194.239 311.427 194.699 314.214 194.462C314.694 194.407 315.173 194.375 315.653 194.362C316.916 194.348 316.642 194.687 316.206 194.966C315.995 195.096 315.774 195.212 315.545 195.314C315.545 195.314 315.345 196.458 315.139 198.17C314.943 199.809 321.115 200.377 322.324 200.734H322.329C323.019 200.971 323.635 201.366 324.12 201.883C324.606 202.399 324.945 203.021 325.109 203.691V203.691Z" fill="#61CE78"/>
<path d="M303.442 184.375C303.779 184.375 304.052 183.906 304.052 183.328C304.052 182.75 303.779 182.282 303.442 182.282C303.105 182.282 302.831 182.75 302.831 183.328C302.831 183.906 303.105 184.375 303.442 184.375Z" fill="#A0616A"/>
<path d="M319.108 184.375C319.445 184.375 319.718 183.906 319.718 183.328C319.718 182.75 319.445 182.282 319.108 182.282C318.771 182.282 318.497 182.75 318.497 183.328C318.497 183.906 318.771 184.375 319.108 184.375Z" fill="#A0616A"/>
<path d="M206.728 189.013L208.197 193.772L226.965 193.462L226.801 184.743C226.671 177.841 221.456 171.889 214.078 172.011C206.699 172.133 202.008 177.967 202.138 184.869L203.21 193.854L206.27 193.804L206.728 189.013Z" fill="#2F2E41"/>
<path d="M214.916 192.341C219.567 192.341 223.337 188.814 223.337 184.464C223.337 180.114 219.567 176.587 214.916 176.587C210.266 176.587 206.495 180.114 206.495 184.464C206.495 188.814 210.266 192.341 214.916 192.341Z" fill="#FFB6B6"/>
<path d="M224.135 178.933C224.124 178.33 223.922 177.744 223.555 177.248C223.516 177.197 223.477 177.149 223.438 177.102C223.126 176.73 222.726 176.43 222.27 176.226C221.813 176.022 221.313 175.919 220.807 175.926L214.754 176.028L208.706 176.126C207.839 176.143 207.015 176.479 206.413 177.063C205.811 177.646 205.481 178.429 205.494 179.239L206.935 181.951L207.764 183.51L207.9 183.437C213.135 180.684 215.276 180.648 222.204 183.207L222.344 183.258L222.893 181.944L224.139 178.962L224.135 178.933Z" fill="#2F2E41"/>
<path d="M231.678 196.747C229.872 195.062 223.761 195.731 223.761 195.731L207.632 196.682C204.054 196.929 200.831 199.609 199.664 200.694C199.85 200.865 200.041 201.032 200.236 201.193C203.821 204.172 208.326 206.007 213.1 206.432C217.875 206.856 222.669 205.847 226.789 203.552C228.518 202.587 230.729 201.43 232.114 200.079C232.663 199.548 233.102 199.559 233.589 198.976C233.225 198.06 232.555 197.279 231.678 196.747V196.747Z" fill="#61CE78"/>
<path d="M216.52 294.459C233.423 294.459 247.126 281.642 247.126 265.832C247.126 250.021 233.423 237.204 216.52 237.204C199.617 237.204 185.914 250.021 185.914 265.832C185.914 281.642 199.617 294.459 216.52 294.459Z" fill="#F0F0F0"/>
<path d="M414.411 294.459C431.315 294.459 445.018 281.642 445.018 265.832C445.018 250.021 431.315 237.204 414.411 237.204C397.508 237.204 383.805 250.021 383.805 265.832C383.805 281.642 397.508 294.459 414.411 294.459Z" fill="#F0F0F0"/>
<path d="M309.596 294.459C326.499 294.459 340.202 281.642 340.202 265.832C340.202 250.021 326.499 237.204 309.596 237.204C292.693 237.204 278.99 250.021 278.99 265.832C278.99 281.642 292.693 294.459 309.596 294.459Z" fill="#F0F0F0"/>
<path d="M216.019 269.938C220.692 269.938 224.48 266.395 224.48 262.024C224.48 257.653 220.692 254.11 216.019 254.11C211.346 254.11 207.558 257.653 207.558 262.024C207.558 266.395 211.346 269.938 216.019 269.938Z" fill="#FFB8B8"/>
<path d="M208.014 264.5C208.014 264.5 208.733 263.319 208.566 259.374C208.399 255.429 214.821 257.66 220.188 257.284C225.554 256.908 224.418 263.87 224.418 263.87C224.418 263.87 224.805 263.456 225.634 260.096C226.463 256.736 224.581 253.387 224.581 253.387C224.027 249.856 221.04 250.988 221.04 250.988C222.478 251.512 222.202 252.632 222.202 252.632C220.984 250.635 217.997 251.766 217.997 251.766C214.013 249.428 209.975 252.507 209.975 252.507C205.162 253.529 207.984 257.109 207.984 257.109C203.144 259.397 208.014 264.5 208.014 264.5Z" fill="#2F2E41"/>
<path d="M230.137 280.598C227.726 279.409 225.208 278.419 222.613 277.637L222.282 274.213L208.863 272.861L207.158 277.237L202.342 278.927C202.17 278.988 202.006 279.068 201.854 279.165H201.848C201.06 279.227 200.301 279.473 199.639 279.879C199.191 280.147 198.792 280.482 198.458 280.87C199.11 281.332 199.787 281.76 200.484 282.17L200.515 282.184C200.713 282.298 200.917 282.412 201.12 282.522C201.487 282.727 201.864 282.922 202.241 283.108L202.48 283.222C203.03 283.488 203.59 283.741 204.165 283.974C204.282 284.022 204.409 284.069 204.526 284.117C204.536 284.122 204.542 284.122 204.552 284.127C204.822 284.231 205.091 284.331 205.366 284.426C206.269 284.749 207.19 285.026 208.125 285.255C210.512 285.85 212.971 286.151 215.44 286.15C216.342 286.15 217.232 286.112 218.113 286.031C220.125 285.857 222.112 285.482 224.039 284.912C224.043 284.912 224.049 284.907 224.054 284.907C225.271 284.545 226.46 284.104 227.612 283.588C227.617 283.584 227.627 283.584 227.633 283.579C227.892 283.465 228.142 283.341 228.396 283.222L228.518 283.165C228.722 283.065 228.926 282.965 229.129 282.86C229.638 282.598 230.137 282.322 230.631 282.027C230.768 281.951 230.901 281.87 231.038 281.784C231.232 281.665 231.425 281.541 231.613 281.412C231.14 281.127 230.646 280.855 230.137 280.598Z" fill="#61CE78"/>
<path d="M321.233 278.924L316.139 278.491L313.091 276.409C313.091 276.405 313.09 276.401 313.087 276.398L313.079 276.401L312.957 276.317L312.941 276.449L307.797 278.3L302.511 277.159L300.682 279.01L292.536 281.537C292.144 281.781 291.8 282.086 291.518 282.438L291.518 282.443C291.86 282.693 292.212 282.94 292.568 283.174C293.375 283.72 294.214 284.223 295.081 284.682C297.19 285.807 299.445 286.674 301.791 287.261C302.003 287.316 302.216 287.368 302.428 287.416C302.798 287.5 303.171 287.581 303.545 287.647C304.3 287.795 305.064 287.91 305.838 287.993C306.975 288.122 308.119 288.186 309.264 288.185C310.047 288.185 310.821 288.156 311.588 288.1C312.936 287.998 314.274 287.808 315.592 287.53C315.639 287.519 315.687 287.511 315.734 287.497C317.753 287.064 319.716 286.425 321.586 285.591C321.873 285.462 322.161 285.33 322.444 285.194C323.14 284.859 323.816 284.498 324.473 284.112C324.969 283.825 325.453 283.52 325.924 283.203C326.216 283.008 326.503 282.81 326.786 282.604L326.755 282.543C326.253 281.541 325.478 280.68 324.509 280.045C323.541 279.41 322.411 279.024 321.233 278.924Z" fill="#61CE78"/>
<path d="M316.367 255.145C315.773 254.594 315.102 254.12 314.373 253.736C309.869 251.411 304.949 251.37 300.874 253.622C299.861 254.18 298.936 254.867 298.125 255.664C295.839 257.895 294.559 260.865 294.55 263.956V273.123H320.186V263.018C320.186 260.31 318.593 257.176 316.367 255.145Z" fill="#2F2E41"/>
<path d="M306.861 272.873C311.975 272.873 316.12 268.996 316.12 264.213C316.12 259.43 311.975 255.552 306.861 255.552C301.748 255.552 297.602 259.43 297.602 264.213C297.602 268.996 301.748 272.873 306.861 272.873Z" fill="#FFB8B8"/>
<path d="M316.359 256.352C316.34 256.167 316.27 255.991 316.157 255.839C316.043 255.688 315.889 255.566 315.71 255.487C309.917 252.956 304.041 253.022 298.255 255.686H298.149L298.113 255.822C296.973 264.04 297.134 264.221 297.205 264.294C297.316 264.413 297.455 264.507 297.61 264.57C297.752 264.629 297.906 264.659 298.062 264.658H311.27L311.301 264.519C311.454 263.783 311.651 263.056 311.891 262.341C312.417 263.059 312.902 263.803 313.342 264.57L313.397 264.658H315.966C316.015 264.658 316.063 264.655 316.111 264.647C316.377 264.618 316.621 264.499 316.8 264.313C316.87 264.243 317.035 264.073 316.359 256.352Z" fill="#2F2E41"/>
<path d="M421.335 277.812L421.001 274.349L407.408 272.979L405.687 277.411L400.808 279.121C400.631 279.182 400.462 279.263 400.306 279.361C399.331 279.444 398.405 279.796 397.645 280.372C397.756 280.458 397.867 280.541 397.979 280.623C398.002 280.645 398.028 280.663 398.051 280.681C398.362 280.907 398.68 281.129 399.002 281.34C399.086 281.398 399.171 281.455 399.259 281.509C399.966 281.977 400.698 282.412 401.452 282.811C402.172 283.194 402.912 283.548 403.671 283.872C405.065 284.468 406.51 284.954 407.991 285.324C408.198 285.378 408.405 285.428 408.612 285.475C408.972 285.557 409.336 285.636 409.701 285.7C410.437 285.844 411.182 285.956 411.936 286.037C413.043 286.163 414.158 286.225 415.274 286.224C416.037 286.224 416.792 286.196 417.54 286.141C418.853 286.042 420.157 285.857 421.442 285.586C421.488 285.575 421.534 285.568 421.58 285.553C423.548 285.131 425.461 284.509 427.284 283.696C427.564 283.571 427.844 283.442 428.119 283.309C428.798 282.983 429.457 282.631 430.097 282.255C430.327 282.122 430.554 281.986 430.78 281.842C427.303 279.655 422.255 278.088 421.335 277.812Z" fill="#61CE78"/>
<path d="M413.674 270.786C419.08 270.786 423.462 266.687 423.462 261.631C423.462 256.574 419.08 252.475 413.674 252.475C408.268 252.475 403.885 256.574 403.885 261.631C403.885 266.687 408.268 270.786 413.674 270.786Z" fill="#A0616A"/>
<path d="M407.104 257.17C408.117 258.292 409.832 258.608 411.413 258.737C414.626 259 419.297 258.573 422.437 257.895C422.662 259.926 422.05 262.116 423.329 263.788C423.928 261.765 424.277 259.684 424.368 257.586C424.463 256.686 424.338 255.778 424.001 254.93C423.82 254.505 423.516 254.136 423.123 253.865C422.73 253.594 422.263 253.431 421.776 253.396C421.883 253.292 421.957 253.162 421.989 253.021C422.021 252.88 422.009 252.733 421.955 252.597C421.837 252.12 421.577 251.683 421.204 251.338C420.832 250.992 420.362 250.753 419.85 250.647L416.327 249.852C416.327 249.852 413.02 248.496 410.55 248.666C409.403 248.745 408.205 248.896 407.276 249.518C406.347 250.139 405.81 251.374 406.387 252.286C405.665 252.397 404.985 252.679 404.412 253.104C403.839 253.53 403.391 254.085 403.111 254.717C402.758 255.723 402.672 256.794 402.863 257.837C403.075 259.511 403.49 261.157 404.102 262.742L407.104 257.17Z" fill="#2F2E41"/>
<path d="M319.626 179.317C319.329 178.427 318.667 177.684 317.785 177.25C316.91 176.825 315.975 176.518 315.008 176.337C313.318 175.882 311.566 175.658 309.807 175.671C308.053 175.752 306.26 176.318 305.069 177.524C303.877 178.731 303.435 180.647 304.303 182.074L304.207 182.444C305.599 182.598 307.008 182.373 308.265 181.793C309.522 181.214 310.573 180.307 311.29 179.181C311.948 180.152 312.882 180.933 313.988 181.436C315.094 181.939 316.328 182.143 317.551 182.026C317.942 181.997 318.322 181.895 318.67 181.725C319.082 181.471 319.397 181.1 319.569 180.667C319.741 180.234 319.761 179.761 319.626 179.317V179.317Z" fill="#2F2E41"/>
<path d="M444.389 73.0871H433.069C432.846 73.0871 432.633 73.0045 432.476 72.8574C432.318 72.7103 432.23 72.5108 432.23 72.3028C432.23 72.0948 432.318 71.8953 432.476 71.7482C432.633 71.6011 432.846 71.5185 433.069 71.5185H444.389C444.611 71.5185 444.824 71.6011 444.982 71.7482C445.139 71.8953 445.227 72.0948 445.227 72.3028C445.227 72.5108 445.139 72.7103 444.982 72.8574C444.824 73.0045 444.611 73.0871 444.389 73.0871Z" fill="#3F3D56"/>
<path d="M444.389 76.0283H433.069C432.846 76.0283 432.633 75.9456 432.476 75.7986C432.318 75.6515 432.23 75.452 432.23 75.244C432.23 75.036 432.318 74.8365 432.476 74.6894C432.633 74.5423 432.846 74.4597 433.069 74.4597H444.389C444.611 74.4597 444.824 74.5423 444.982 74.6894C445.139 74.8365 445.227 75.036 445.227 75.244C445.227 75.452 445.139 75.6515 444.982 75.7986C444.824 75.9456 444.611 76.0283 444.389 76.0283Z" fill="#3F3D56"/>
<path d="M444.389 78.9694H433.069C432.846 78.9694 432.633 78.8868 432.476 78.7397C432.318 78.5926 432.23 78.3931 432.23 78.1851C432.23 77.9771 432.318 77.7776 432.476 77.6305C432.633 77.4834 432.846 77.4008 433.069 77.4008H444.389C444.611 77.4008 444.824 77.4834 444.982 77.6305C445.139 77.7776 445.227 77.9771 445.227 78.1851C445.227 78.3931 445.139 78.5926 444.982 78.7397C444.824 78.8868 444.611 78.9694 444.389 78.9694Z" fill="#3F3D56"/>
</g>
<defs>
<clipPath id="clip0">
<rect width="289.71" height="224.011" fill="white" transform="translate(164.644 70.4485)"/>
</clipPath>
</defs>
</svg>
