<svg width="300" height="200" viewBox="0 0 300 200" fill="none" xmlns="http://www.w3.org/2000/svg">
<g clip-path="url(#clip0)">
<path d="M150.963 200C232.31 200 298.255 194.648 298.255 188.045C298.255 181.443 232.31 176.091 150.963 176.091C69.6152 176.091 3.67001 181.443 3.67001 188.045C3.67001 194.648 69.6152 200 150.963 200Z" fill="#F2F2F2"/>
<path d="M145.317 57.1725C121.319 57.1725 104.089 76.0484 104.089 120.092C104.089 170.008 121.319 183.221 145.317 183.221C169.315 183.221 187.572 168.75 187.572 120.092C187.572 68.0786 169.315 57.1725 145.317 57.1725ZM145.475 166.653C128.853 166.653 120.17 154.697 120.17 120.124C120.17 89.6187 129.209 73.5316 145.83 73.5316C162.452 73.5316 171.491 84.0986 171.491 120.124C171.491 153.826 162.097 166.653 145.475 166.653Z" fill="#2F2E41"/>
<path d="M89.719 148.406H79.7969V112.585C79.7969 110.682 79.1804 108.857 78.083 107.512C76.9856 106.167 75.4973 105.411 73.9454 105.411H71.6205C70.852 105.411 70.0911 105.596 69.3812 105.957C68.6713 106.317 68.0262 106.846 67.4829 107.512C66.9395 108.178 66.5085 108.969 66.2144 109.839C65.9204 110.71 65.769 111.643 65.769 112.585V148.406H37.782C37.2062 148.406 36.6403 148.223 36.139 147.876C35.6377 147.529 35.2181 147.029 34.9209 146.424C34.6237 145.82 34.459 145.131 34.4428 144.426C34.4266 143.72 34.5594 143.021 34.8284 142.397L64.4496 73.6641C64.8189 72.8072 65.0427 71.8674 65.1076 70.9015C65.1724 69.9356 65.077 68.9636 64.827 68.0442C64.577 67.1247 64.1776 66.2769 63.6529 65.5519C63.1283 64.8269 62.4893 64.2398 61.7744 63.826L60.0258 62.8136C58.6681 62.0276 57.1158 61.9115 55.6902 62.4894C54.2645 63.0674 53.0747 64.2951 52.3668 65.9186L16.2399 148.774C15.6247 150.185 15.3029 151.76 15.3029 153.36V153.36C15.3029 154.637 15.5081 155.902 15.9069 157.082C16.3056 158.262 16.8901 159.335 17.6268 160.238C18.3636 161.141 19.2383 161.858 20.201 162.347C21.1636 162.836 22.1954 163.087 23.2374 163.087H65.769V185.738C65.769 186.867 65.9504 187.986 66.3029 189.029C66.6554 190.072 67.172 191.02 67.8233 191.819C68.4746 192.617 69.2478 193.25 70.0988 193.683C70.9498 194.115 71.8618 194.337 72.7829 194.337H72.7829C73.704 194.337 74.6161 194.115 75.467 193.683C76.318 193.25 77.0912 192.617 77.7425 191.819C78.3938 191.02 78.9105 190.072 79.263 189.029C79.6154 187.986 79.7969 186.867 79.7969 185.738V163.087H89.719C91.307 163.087 92.8299 162.314 93.9528 160.937C95.0757 159.56 95.7065 157.693 95.7065 155.747V155.747C95.7065 153.8 95.0757 151.933 93.9528 150.556C92.83 149.179 91.307 148.406 89.719 148.406V148.406Z" fill="#61CE70"/>
<path d="M273.45 148.406H263.528V112.585C263.528 110.682 262.911 108.857 261.814 107.512C260.717 106.167 259.228 105.411 257.676 105.411H255.351C254.583 105.411 253.822 105.596 253.112 105.957C252.402 106.317 251.757 106.846 251.214 107.512C250.67 108.178 250.239 108.969 249.945 109.839C249.651 110.71 249.5 111.643 249.5 112.585V148.406H221.513C220.937 148.406 220.371 148.223 219.87 147.876C219.369 147.529 218.949 147.029 218.652 146.424C218.355 145.82 218.19 145.131 218.174 144.426C218.157 143.72 218.29 143.021 218.559 142.397L248.18 73.6642C248.55 72.8072 248.774 71.8674 248.838 70.9015C248.903 69.9356 248.808 68.9636 248.558 68.0442C248.308 67.1247 247.908 66.2769 247.384 65.5519C246.859 64.8269 246.22 64.2398 245.505 63.826L243.757 62.8136C242.399 62.0276 240.847 61.9115 239.421 62.4894C237.995 63.0674 236.806 64.2951 236.098 65.9186L199.971 148.774C199.356 150.185 199.034 151.76 199.034 153.36V153.36C199.034 155.939 199.87 158.414 201.358 160.238C202.846 162.062 204.864 163.087 206.968 163.087H249.5V185.738C249.5 188.019 250.239 190.206 251.554 191.819C252.87 193.431 254.654 194.337 256.514 194.337V194.337C258.374 194.337 260.158 193.431 261.473 191.819C262.789 190.206 263.528 188.019 263.528 185.738V163.087H273.45C275.038 163.087 276.561 162.314 277.684 160.937C278.807 159.56 279.437 157.693 279.437 155.747V155.747C279.437 153.8 278.807 151.933 277.684 150.556C276.561 149.179 275.038 148.406 273.45 148.406Z" fill="#61CE70"/>
<path d="M92.4562 144.211H82.534V108.39C82.534 107.448 82.3827 106.515 82.0886 105.645C81.7945 104.774 81.3635 103.984 80.8202 103.317C80.2768 102.651 79.6317 102.123 78.9218 101.762C78.2119 101.402 77.451 101.216 76.6826 101.216H74.3576C72.8057 101.216 71.3174 101.972 70.22 103.317C69.1226 104.663 68.5061 106.487 68.5061 108.39V144.211H40.5191C39.9434 144.211 39.3774 144.029 38.8761 143.682C38.3748 143.334 37.9552 142.834 37.658 142.23C37.3608 141.625 37.1962 140.937 37.18 140.231C37.1638 139.526 37.2966 138.827 37.5656 138.203L67.1867 69.4695C67.556 68.6126 67.7798 67.6728 67.8447 66.7069C67.9096 65.741 67.8141 64.769 67.5641 63.8495C67.3141 62.9301 66.9147 62.0823 66.3901 61.3573C65.8655 60.6323 65.2264 60.0452 64.5116 59.6313L62.763 58.619C61.4052 57.8329 59.8529 57.7168 58.4273 58.2948C57.0017 58.8727 55.8118 60.1004 55.104 61.7239L18.9771 144.579C18.3619 145.99 18.04 147.565 18.04 149.165C18.04 151.745 18.876 154.219 20.364 156.043C21.852 157.868 23.8702 158.893 25.9745 158.893H68.5061V181.544C68.5061 182.673 68.6876 183.791 69.04 184.834C69.3925 185.878 69.9092 186.825 70.5605 187.624C71.2118 188.422 71.985 189.056 72.836 189.488C73.6869 189.92 74.599 190.143 75.5201 190.143C77.3803 190.143 79.1643 189.237 80.4797 187.624C81.795 186.011 82.534 183.824 82.534 181.544V158.893H92.4562C93.2424 158.893 94.021 158.703 94.7475 158.334C95.4739 157.965 96.134 157.424 96.69 156.743C97.246 156.061 97.687 155.252 97.9879 154.361C98.2888 153.47 98.4437 152.516 98.4437 151.552C98.4437 150.588 98.2888 149.633 97.9879 148.743C97.687 147.852 97.246 147.043 96.69 146.361C96.134 145.68 95.4739 145.139 94.7475 144.77C94.021 144.401 93.2425 144.211 92.4562 144.211Z" stroke="#3F3D56" stroke-miterlimit="10"/>
<path d="M278.582 144.211H268.66V108.39C268.66 106.487 268.043 104.663 266.946 103.317C265.849 101.972 264.36 101.216 262.808 101.216H260.483C259.715 101.216 258.954 101.402 258.244 101.762C257.534 102.123 256.889 102.651 256.346 103.317C255.802 103.984 255.371 104.774 255.077 105.645C254.783 106.515 254.632 107.448 254.632 108.39V144.211H226.645C226.069 144.211 225.503 144.029 225.002 143.682C224.501 143.334 224.081 142.834 223.784 142.23C223.487 141.625 223.322 140.937 223.306 140.231C223.29 139.526 223.422 138.827 223.691 138.203L253.313 69.4695C253.682 68.6126 253.906 67.6728 253.971 66.7069C254.035 65.741 253.94 64.769 253.69 63.8495C253.44 62.9301 253.041 62.0823 252.516 61.3573C251.991 60.6323 251.352 60.0452 250.637 59.6313L248.889 58.619C247.531 57.8329 245.979 57.7168 244.553 58.2948C243.128 58.8727 241.938 60.1004 241.23 61.7239L205.103 144.579C204.488 145.99 204.166 147.565 204.166 149.165C204.166 151.745 205.002 154.219 206.49 156.043C207.978 157.868 209.996 158.893 212.1 158.893H254.632V181.544C254.632 183.824 255.371 186.011 256.686 187.624C258.002 189.237 259.786 190.143 261.646 190.143V190.143C263.506 190.143 265.29 189.237 266.606 187.624C267.921 186.011 268.66 183.824 268.66 181.544V158.893H278.582C279.368 158.893 280.147 158.703 280.873 158.334C281.6 157.965 282.26 157.424 282.816 156.743C283.372 156.061 283.813 155.252 284.114 154.361C284.415 153.47 284.569 152.516 284.569 151.552V151.552C284.569 149.605 283.939 147.738 282.816 146.361C281.693 144.985 280.17 144.211 278.582 144.211V144.211Z" stroke="#3F3D56" stroke-miterlimit="10"/>
<path d="M150.792 53.3973C126.794 53.3973 109.563 72.2732 109.563 116.317C109.563 166.233 126.794 179.446 150.792 179.446C174.79 179.446 193.046 164.975 193.046 116.317C193.046 64.3034 174.79 53.3973 150.792 53.3973ZM150.949 162.877C134.328 162.877 125.644 150.922 125.644 116.349C125.644 85.8435 134.683 69.7564 151.305 69.7564C167.926 69.7564 176.966 80.3234 176.966 116.349C176.966 150.051 167.571 162.877 150.949 162.877V162.877Z" stroke="#3F3D56" stroke-miterlimit="10"/>
<path d="M131.556 10.6641C133.545 10.6641 135.158 8.68683 135.158 6.24768C135.158 3.80853 133.545 1.83121 131.556 1.83121C129.566 1.83121 127.953 3.80853 127.953 6.24768C127.953 8.68683 129.566 10.6641 131.556 10.6641Z" fill="#2F2E41"/>
<path d="M140.342 32.1002C145.922 32.1002 150.446 24.9143 150.446 16.0501C150.446 7.18586 145.922 0 140.342 0C134.762 0 130.238 7.18586 130.238 16.0501C130.238 24.9143 134.762 32.1002 140.342 32.1002Z" fill="#2F2E41"/>
<path opacity="0.1" d="M140.342 27.2528C135.28 27.2528 131.088 21.3406 130.352 13.6264C130.276 14.4309 130.238 15.2401 130.238 16.0501C130.238 24.9143 134.762 32.1002 140.342 32.1002C145.922 32.1002 150.446 24.9143 150.446 16.0501C150.446 15.2401 150.408 14.4309 150.331 13.6264C149.596 21.3406 145.404 27.2528 140.342 27.2528Z" fill="black"/>
<path d="M160.903 63.0534C160.686 64.1466 159.75 65.0221 158.714 65.6339C156.535 66.9199 153.848 67.3037 151.242 67.4325C150.577 67.4821 149.91 67.4669 149.247 67.3873C147.962 67.235 146.757 66.5558 145.826 65.4595C145.76 65.4064 145.705 65.3336 145.668 65.2477C145.631 65.1619 145.612 65.0659 145.613 64.9686C145.614 64.8714 145.636 64.7761 145.675 64.6917C145.715 64.6073 145.771 64.5365 145.838 64.486C147.226 62.6172 149.542 61.4714 151.874 60.6464C153.643 60.0208 156.728 58.4004 158.657 58.6191C160.525 58.8309 161.177 61.6731 160.903 63.0534Z" fill="#3F3D56"/>
<path opacity="0.1" d="M160.903 63.0534C160.686 64.1466 159.75 65.0221 158.714 65.6339C156.535 66.9199 153.848 67.3037 151.242 67.4325C150.577 67.4821 149.91 67.4669 149.247 67.3873C147.962 67.235 146.757 66.5558 145.826 65.4595C145.76 65.4064 145.705 65.3336 145.668 65.2477C145.631 65.1619 145.612 65.0659 145.613 64.9686C145.614 64.8714 145.636 64.7761 145.675 64.6917C145.715 64.6073 145.771 64.5365 145.838 64.486C147.226 62.6172 149.542 61.4714 151.874 60.6464C153.643 60.0208 156.728 58.4004 158.657 58.6191C160.525 58.8309 161.177 61.6731 160.903 63.0534Z" fill="black"/>
<path d="M133.204 54.8829C132.539 56.4807 132.418 58.3368 132.869 60.0434C133.328 61.7371 134.186 63.226 135.335 64.3215C138.153 67.0915 142.033 67.4727 145.645 67.4342C148.811 67.4004 151.972 67.1348 155.112 66.6387C156.164 66.5244 157.198 66.23 158.184 65.7642C159.363 65.1389 160.399 63.9918 160.819 62.5033C161.239 61.0148 160.941 59.1921 159.944 58.1987C159.068 57.3259 157.86 57.2058 156.733 57.1228L150.287 56.6479C150.924 55.8576 151.772 55.4107 152.547 54.8362C153.576 54.074 154.26 52.7944 155.008 51.6406C156.161 49.9515 157.415 48.3704 158.761 46.9107C158.97 48.3862 159.732 49.5979 160.628 50.616C161.524 51.6342 162.557 52.4538 163.488 53.4232C165.744 55.771 167.368 58.9576 169.741 61.1258C171.373 60.6 172.898 59.6662 174.222 58.383L173.3 56.3353C173.223 56.1246 173.103 55.9416 172.952 55.8038C172.691 55.6069 172.355 55.7084 172.052 55.6526C171.242 55.5037 170.888 54.3573 170.57 53.4318C169.698 50.8911 168.027 48.9199 166.6 46.7893C165.547 45.2165 164.613 43.5295 163.809 41.7492C163.33 40.6875 162.891 39.5819 162.241 38.6672C161.59 37.7524 160.679 37.0332 159.689 37.0306C158.814 37.0284 158.008 37.5727 157.256 38.1203C154.965 39.7882 152.762 41.6288 150.657 43.6315C149.556 44.6796 148.462 45.7869 147.17 46.4297C146.626 46.7002 146.053 46.8851 145.531 47.2144C144.617 47.791 143.924 48.7666 143.177 49.6326C140.514 52.7215 136.868 54.7228 133.204 54.8829Z" fill="#3F3D56"/>
<path d="M146.684 32.8973C146.654 33.8415 146.49 34.772 146.2 35.6473C146.053 36.0839 145.834 36.4786 145.556 36.8068C145.279 37.135 144.95 37.3897 144.589 37.555C144.077 37.7234 143.539 37.7447 143.019 37.6175C142.565 37.5594 142.128 37.3768 141.74 37.0832C141.135 36.5737 140.834 35.6646 140.724 34.7748C140.614 33.8861 140.663 32.9781 140.593 32.0829C140.525 31.3599 140.413 30.6441 140.258 29.9415C140.21 29.7077 140.162 29.4751 140.114 29.2424C140.068 29.0097 140.022 28.777 139.98 28.5444C139.941 28.3257 139.905 28.1059 139.874 27.8851C139.849 27.6988 139.826 27.5113 139.809 27.3228C139.794 26.764 139.718 26.2101 139.584 25.6758C139.457 25.3293 139.299 25.0015 139.113 24.6988C139.033 24.5588 138.955 24.4187 138.884 24.2733C138.678 23.8954 138.583 23.4433 138.613 22.9904C138.621 22.9204 138.635 22.8515 138.654 22.7847C138.661 22.7588 138.669 22.733 138.678 22.7082C138.757 22.6819 138.829 22.6323 138.889 22.5638C138.949 22.4953 138.995 22.4099 139.021 22.315C139.052 22.1112 139.037 21.9012 138.98 21.7064C138.914 21.4341 138.825 21.1715 138.712 20.9233C138.638 20.7595 138.388 20.4644 138.386 20.2769C138.383 19.8999 138.984 19.5962 139.227 19.4475C139.97 18.9914 140.798 18.7855 141.627 18.8507C142.159 18.8949 142.735 19.0953 143.029 19.6414C143.292 20.1337 143.257 20.7714 143.37 21.3434C143.381 21.4265 143.41 21.5047 143.453 21.5706C143.51 21.6347 143.583 21.6753 143.66 21.687C143.79 21.7187 143.923 21.7253 144.055 21.7064H144.056C144.091 21.703 144.125 21.6969 144.16 21.688C144.365 21.6416 144.559 21.5389 144.727 21.3875C144.836 21.352 144.946 21.3229 145.057 21.3003C145.061 21.2997 145.066 21.2986 145.07 21.297C145.51 23.0001 145.567 24.8259 145.927 26.5602C146.106 27.423 146.361 28.275 146.397 29.1626C146.4 29.2014 146.401 29.2413 146.402 29.2811C146.407 29.5666 146.389 29.8542 146.398 30.1386C146.402 30.2666 146.413 30.3941 146.433 30.5199C146.473 30.7221 146.522 30.9214 146.58 31.1167L146.583 31.1264C146.599 31.1888 146.615 31.2524 146.628 31.3159C146.638 31.3623 146.647 31.4075 146.654 31.4538L146.655 31.457C146.72 31.933 146.73 32.4179 146.684 32.8973V32.8973Z" fill="#FBBEBE"/>
<path d="M140.518 21.7592C143.381 21.7592 145.702 18.9138 145.702 15.4038C145.702 11.8938 143.381 9.04837 140.518 9.04837C137.655 9.04837 135.334 11.8938 135.334 15.4038C135.334 18.9138 137.655 21.7592 140.518 21.7592Z" fill="#FBBEBE"/>
<path d="M173.429 50.0311C173.279 48.2971 172.776 46.6371 171.967 45.2031C172.102 46.1833 172.236 47.1632 172.371 48.1428C172.203 48.2023 172.025 48.2005 171.858 48.1375C171.691 48.0746 171.543 47.9532 171.431 47.7884C171.213 47.4542 171.046 47.0743 170.938 46.667C170.349 44.8746 169.579 43.1798 168.646 41.6225C165.346 41.2854 162.083 39.6082 159.181 37.6531C156.278 35.6991 153.562 33.3562 150.697 31.3192C150.201 30.9512 149.683 30.6272 149.149 30.3497C148.253 29.9092 147.247 29.6808 146.397 29.1627C146.34 29.1282 146.283 29.0916 146.227 29.0539C146.035 28.9259 145.853 28.7762 145.684 28.6068C145.592 28.5158 145.506 28.4179 145.424 28.3138C145 27.7092 144.664 27.0199 144.43 26.2758C143.974 25.0392 143.812 23.5473 143.356 22.3107C143.566 22.071 143.801 21.8677 144.055 21.7064H144.056C144.093 21.6827 144.13 21.6601 144.167 21.6385C144.348 21.5345 144.535 21.4505 144.727 21.3875C144.836 21.352 144.946 21.3229 145.057 21.3003C145.061 21.2997 145.065 21.2986 145.07 21.297C145.583 21.1945 146.109 21.2455 146.603 21.4457C147.325 21.7452 147.934 22.343 148.541 22.9085C149.528 23.7604 150.474 24.6804 151.375 25.664C151.876 26.2521 152.333 26.8984 152.871 27.4327C153.319 27.8562 153.791 28.2396 154.283 28.5799C157.197 30.7084 160.112 32.8366 163.027 34.9644C164.014 35.685 165.001 36.4057 165.966 37.1683C167.432 38.3274 168.845 39.5834 170.256 40.8383C171.089 41.5773 171.92 42.3166 172.752 43.0563C173.025 43.2696 173.264 43.541 173.459 43.8577C173.631 44.2172 173.738 44.6181 173.773 45.0329C173.981 46.7089 173.864 48.4216 173.429 50.0311V50.0311Z" fill="#FBBEBE"/>
<path d="M147.969 37.6767C147.62 39.5995 146.035 40.7618 145.206 42.4508C144.176 44.547 144.596 46.9836 144.983 49.3847C144.276 50.1312 143.57 50.8777 142.863 51.6242C142.473 52.0346 142.082 52.4471 141.662 52.8101C141.05 53.3132 140.41 53.7638 139.747 54.1588C139.121 54.553 138.496 54.9476 137.87 55.3426C137.289 55.7435 136.673 56.0636 136.033 56.297C134.8 56.6848 133.491 56.4133 132.272 55.9641C132.128 55.9179 131.99 55.8487 131.861 55.7584C131.784 55.7028 131.718 55.6292 131.665 55.5419C131.545 55.2776 131.502 54.9712 131.542 54.6726C131.665 52.1563 132.167 49.6928 132.667 47.2475C132.934 45.7806 133.294 44.3411 133.742 42.942C134.181 41.7432 134.686 40.5822 135.254 39.467C135.88 38.0639 136.622 36.7432 137.468 35.5256C137.88 35.057 138.226 34.509 138.494 33.9034C138.806 33.0308 138.686 32.0301 138.749 31.0801C138.797 30.3662 138.952 29.6693 139.205 29.0237V29.0226C139.34 28.6749 139.503 28.3444 139.692 28.0359C139.777 28.2794 139.862 28.5225 139.947 28.7652C140.004 28.9246 140.059 29.0837 140.114 29.2424C140.186 29.4471 140.258 29.651 140.329 29.8542C140.533 30.4381 140.738 31.0215 140.942 31.6047C141.163 32.3391 141.477 33.0259 141.873 33.6395C142.055 33.9536 142.299 34.2048 142.583 34.3685C142.867 34.5322 143.181 34.6028 143.494 34.5734C143.807 34.5439 144.108 34.4156 144.368 34.2007C144.629 33.9859 144.839 33.6919 144.979 33.3475C145.275 32.7048 145.489 32.0107 145.614 31.289C145.787 30.4104 145.811 29.4973 145.684 28.6069C145.472 26.892 144.877 25.1405 144.445 23.5473C144.269 23.0161 144.167 22.4524 144.144 21.8798C144.145 21.8155 144.15 21.7513 144.16 21.6881C144.162 21.6719 144.165 21.6547 144.167 21.6385C144.348 21.5346 144.535 21.4506 144.727 21.3875C144.836 21.352 144.946 21.3229 145.057 21.3003C145.437 23.8252 145.818 26.3501 146.2 28.8751C146.208 28.9343 146.218 28.9936 146.227 29.0539C146.281 29.4158 146.337 29.7778 146.398 30.1386C146.454 30.4661 146.513 30.7925 146.58 31.1167L146.583 31.1264C146.606 31.2363 146.629 31.3451 146.654 31.4539L146.655 31.4571C146.722 31.7544 146.798 32.0495 146.883 32.3404C147.4 34.0929 148.3 35.8574 147.969 37.6767Z" fill="#61CE70"/>
<path d="M169.007 64.6979C168.991 65.0683 169.05 65.4379 169.178 65.7739C169.502 66.5009 170.281 66.6661 170.954 66.7341C174.889 67.1306 178.848 66.9828 182.756 66.2933C182.968 66.2755 183.174 66.1972 183.357 66.0647C183.912 65.5871 183.57 64.4232 182.963 64.0506C182.356 63.678 181.637 63.7678 180.971 63.6064C180.309 63.4023 179.68 63.0675 179.106 62.615C177.756 61.6641 176.426 60.6727 175.115 59.6408C174.335 59.0264 173.414 58.3708 172.535 58.735C170.155 59.7223 168.992 61.5497 169.007 64.6979Z" fill="#3F3D56"/>
<path d="M140 28.4097V28.4108C139.994 28.456 139.988 28.5002 139.98 28.5444C139.97 28.6176 139.959 28.6919 139.947 28.7652C139.838 29.4492 139.705 30.13 139.551 30.8064C139.129 32.6753 138.564 34.5141 138.004 36.3259C136.5 41.184 134.995 46.0425 133.49 50.9013C133.111 52.125 132.732 53.3498 132.301 54.5487C132.157 54.9483 132.008 55.3512 131.861 55.7584C131.332 57.2158 130.824 58.7206 130.655 60.2718C130.498 61.2926 130.48 62.3384 130.601 63.3665C130.77 64.3834 131.274 65.3766 132.062 65.7525C132.447 65.9367 132.997 66.1834 132.892 66.6735C132.835 66.9428 132.585 67.0742 132.361 67.1194C132.065 67.1773 131.763 67.1545 131.475 67.0529C131.187 66.9513 130.921 66.7732 130.695 66.5313C130.275 66.0735 129.951 65.3615 129.392 65.285C129.004 65.2333 128.647 65.5177 128.292 65.717C126.844 66.5281 125.157 65.9604 123.637 65.3841C123.756 64.629 124.375 64.1314 124.989 63.9805C125.603 63.8287 126.238 63.9364 126.865 63.9159C127.065 63.929 127.264 63.8662 127.435 63.736C127.588 63.564 127.695 63.3395 127.742 63.0919C128.146 61.6259 128.446 60.1203 128.639 58.5914C128.842 56.9939 128.926 55.3717 129.214 53.7936C129.438 52.5624 129.784 51.3699 130.081 50.1613C130.656 47.6729 131.127 45.1505 131.494 42.6038C131.68 41.5457 131.813 40.4748 131.892 39.397C131.942 38.5029 131.918 37.6046 131.989 36.7137C132.107 35.5547 132.304 34.41 132.578 33.2915C132.847 32.0711 133.116 30.8513 133.384 29.6323C133.782 27.828 134.209 25.9537 135.218 24.5512C135.568 24.0575 135.997 23.6572 136.479 23.3752C136.961 23.0932 137.484 22.9354 138.018 22.9117C138.218 22.9114 138.417 22.9378 138.613 22.9904C138.645 23.0001 138.678 23.0098 138.71 23.0205C138.923 23.0888 139.127 23.1924 139.317 23.3286C139.628 23.0862 139.787 23.1713 139.993 23.5451C140.174 23.9407 140.259 24.3913 140.239 24.8442C140.257 26.0395 140.176 27.2339 140 28.4097Z" fill="#FBBEBE"/>
<path d="M140.342 29.8381L140.329 29.8542L140.258 29.9415L139.551 30.8065L139.205 29.0237L138.018 22.9117C138.218 22.9114 138.417 22.9378 138.613 22.9904C138.621 22.9204 138.635 22.8515 138.654 22.7846L138.71 23.0205L139.113 24.6988L139.874 27.8851L140 28.4097V28.4108L140.342 29.8381Z" fill="#61CE70"/>
<path d="M144.825 10.3393C144.824 10.9053 144.732 11.4655 144.555 11.988C144.378 12.5106 144.118 12.9851 143.791 13.3846C143.673 13.53 143.546 13.6646 143.412 13.7873C142.805 14.3477 142.067 14.651 141.307 14.6514H137.092C136.161 14.6497 135.268 14.1948 134.61 13.3867C133.952 12.5786 133.582 11.4834 133.582 10.3414C133.582 9.1995 133.952 8.10424 134.61 7.29615C135.268 6.48806 136.161 6.0332 137.092 6.03143H141.307C142.239 6.03441 143.132 6.48909 143.791 7.29622C144.45 8.10334 144.821 9.19733 144.825 10.3393V10.3393Z" fill="#2F2E41"/>
<path d="M148.777 10.6641C150.766 10.6641 152.379 8.68683 152.379 6.24768C152.379 3.80853 150.766 1.83121 148.777 1.83121C146.787 1.83121 145.174 3.80853 145.174 6.24768C145.174 8.68683 146.787 10.6641 148.777 10.6641Z" fill="#2F2E41"/>
<path opacity="0.1" d="M148.689 1.83121C148.645 1.83121 148.601 1.83337 148.557 1.8353C149.489 1.87683 150.371 2.35989 151.019 3.18283C151.666 4.00578 152.028 5.10445 152.028 6.24768C152.028 7.39092 151.666 8.48958 151.019 9.31252C150.371 10.1355 149.489 10.6185 148.557 10.6601C148.601 10.662 148.645 10.6641 148.689 10.6641C149.644 10.6641 150.561 10.1988 151.236 9.37059C151.912 8.54234 152.291 7.419 152.291 6.24768C152.291 5.07636 151.912 3.95302 151.236 3.12477C150.561 2.29652 149.644 1.83121 148.689 1.83121V1.83121Z" fill="black"/>
<path opacity="0.1" d="M131.556 1.83121C131.6 1.83121 131.644 1.83337 131.687 1.8353C130.756 1.87683 129.873 2.35989 129.226 3.18283C128.579 4.00578 128.217 5.10445 128.217 6.24768C128.217 7.39092 128.579 8.48958 129.226 9.31252C129.873 10.1355 130.756 10.6185 131.687 10.6601C131.644 10.662 131.6 10.6641 131.556 10.6641C130.601 10.6631 129.685 10.1974 129.01 9.36921C128.336 8.54108 127.956 7.41833 127.956 6.24768C127.956 5.07704 128.336 3.95428 129.01 3.12614C129.685 2.29801 130.601 1.83225 131.556 1.83121Z" fill="black"/>
<path opacity="0.1" d="M143.412 13.7873C142.805 14.3477 142.067 14.651 141.307 14.6514H137.092C136.333 14.651 135.594 14.3477 134.988 13.7873H143.412Z" fill="black"/>
<path d="M170.632 45.7887C170.632 45.7887 171.54 48.9969 172.371 48.1427L171.709 43.9492L170.632 45.7887Z" fill="#FBBEBE"/>
<path d="M281.144 143.625C281.99 144.002 282.896 144.133 283.79 144.007C284.684 143.882 285.542 143.504 286.297 142.902C287.052 142.301 287.682 141.493 288.138 140.542C288.595 139.591 288.865 138.523 288.927 137.422C288.99 136.321 288.843 135.218 288.498 134.199C288.153 133.179 287.62 132.272 286.94 131.549C286.261 130.825 285.453 130.305 284.582 130.03C283.71 129.754 282.798 129.73 281.918 129.96L282.064 133.627L280.648 130.485C279.26 131.285 278.187 132.728 277.665 134.498C277.48 135.118 277.368 135.766 277.331 136.425C277.242 137.97 277.566 139.509 278.254 140.808C278.942 142.107 279.957 143.096 281.144 143.625V143.625Z" fill="#57B894"/>
<path d="M288.147 186.157C287.647 183.038 289.812 180.273 291.95 178.476C294.088 176.679 296.586 174.913 297.316 171.863C298.365 167.48 295.241 163.466 292.811 160.005C291.007 157.436 289.458 154.614 288.197 151.598C287.691 150.388 287.226 149.124 287.093 147.775C286.901 145.832 287.411 143.899 287.923 142.046C289.632 135.872 291.459 129.75 293.404 123.68" stroke="#3F3D56" stroke-miterlimit="10"/>
<path d="M281.384 142.68C282.229 143.057 283.135 143.188 284.029 143.063C284.924 142.938 285.782 142.559 286.536 141.958C287.291 141.357 287.921 140.549 288.378 139.598C288.834 138.647 289.104 137.579 289.167 136.478C289.229 135.377 289.082 134.274 288.737 133.255C288.392 132.235 287.859 131.328 287.179 130.605C286.5 129.881 285.692 129.361 284.821 129.086C283.95 128.81 283.038 128.786 282.157 129.016L282.303 132.683L280.888 129.541C279.499 130.341 278.426 131.784 277.905 133.554C277.719 134.173 277.607 134.822 277.57 135.481C277.481 137.026 277.805 138.565 278.493 139.864C279.181 141.163 280.196 142.152 281.384 142.68V142.68Z" stroke="#3F3D56" stroke-miterlimit="10"/>
<path d="M287.436 122.413C287.768 121.29 288.325 120.288 289.056 119.499C289.787 118.709 290.669 118.158 291.619 117.895L292.098 121.382L292.985 117.72C294.216 117.743 295.41 118.244 296.394 119.153C297.378 120.061 298.101 121.33 298.459 122.775C298.817 124.22 298.79 125.767 298.384 127.193C297.978 128.619 297.212 129.849 296.198 130.707C295.184 131.565 293.974 132.005 292.743 131.965C291.512 131.924 290.323 131.405 289.348 130.482C288.372 129.559 287.662 128.28 287.318 126.83C286.975 125.38 287.016 123.833 287.436 122.413H287.436Z" fill="#57B894"/>
<path d="M287.755 121.154C288.087 120.032 288.644 119.029 289.375 118.24C290.106 117.45 290.988 116.899 291.938 116.636L292.417 120.123L293.304 116.461C294.536 116.484 295.73 116.985 296.714 117.894C297.697 118.803 298.42 120.071 298.778 121.516C299.136 122.961 299.11 124.508 298.703 125.934C298.297 127.36 297.531 128.59 296.518 129.448C295.504 130.306 294.294 130.746 293.062 130.706C291.831 130.665 290.642 130.146 289.667 129.223C288.692 128.3 287.981 127.021 287.637 125.571C287.294 124.121 287.335 122.574 287.755 121.154H287.755Z" stroke="#3F3D56" stroke-miterlimit="10"/>
<path d="M291.79 160.075C293.132 160.672 294.605 160.642 295.93 159.992C297.255 159.343 298.339 158.118 298.974 156.551C299.61 154.985 299.753 153.187 299.377 151.499C299 149.812 298.131 148.353 296.933 147.401L296.252 150.215L295.768 146.688C295.764 146.685 295.759 146.683 295.754 146.681C295.036 146.361 294.274 146.218 293.512 146.259C292.749 146.301 292 146.526 291.309 146.922C290.617 147.318 289.996 147.878 289.481 148.568C288.966 149.259 288.566 150.067 288.306 150.947C288.046 151.827 287.929 152.761 287.964 153.696C287.998 154.631 288.182 155.548 288.506 156.396C288.829 157.244 289.286 158.005 289.849 158.636C290.413 159.268 291.073 159.757 291.79 160.075H291.79Z" fill="#57B894"/>
<path d="M292.067 158.8C293.408 159.397 294.882 159.367 296.207 158.717C297.532 158.067 298.615 156.843 299.251 155.276C299.886 153.71 300.03 151.912 299.653 150.224C299.277 148.537 298.407 147.078 297.21 146.126L296.528 148.94L296.045 145.412C296.04 145.41 296.035 145.407 296.03 145.406C295.313 145.086 294.551 144.943 293.788 144.984C293.026 145.025 292.277 145.251 291.585 145.647C290.894 146.043 290.273 146.603 289.757 147.293C289.242 147.984 288.843 148.792 288.583 149.672C288.322 150.552 288.206 151.486 288.24 152.421C288.274 153.356 288.458 154.273 288.782 155.121C289.106 155.969 289.562 156.73 290.126 157.361C290.69 157.993 291.349 158.481 292.067 158.8H292.067Z" stroke="#3F3D56" stroke-miterlimit="10"/>
<path d="M285.74 171.907C285.971 173.516 286.646 174.979 287.652 176.05C288.658 177.122 289.934 177.736 291.266 177.791C292.597 177.846 293.904 177.338 294.966 176.352C296.029 175.366 296.783 173.962 297.101 172.376C297.419 170.79 297.283 169.117 296.715 167.64C296.147 166.162 295.182 164.968 293.982 164.259C292.781 163.55 291.418 163.369 290.122 163.745C288.825 164.122 287.674 165.034 286.86 166.328L289.449 171.106L285.912 168.57C285.637 169.649 285.579 170.794 285.74 171.907V171.907Z" fill="#57B894"/>
<path d="M285.98 170.963C286.21 172.572 286.885 174.035 287.891 175.106C288.897 176.177 290.173 176.792 291.505 176.847C292.837 176.902 294.143 176.394 295.206 175.408C296.268 174.422 297.022 173.018 297.34 171.432C297.659 169.846 297.523 168.173 296.955 166.695C296.387 165.218 295.422 164.024 294.221 163.315C293.021 162.606 291.658 162.425 290.361 162.801C289.064 163.178 287.913 164.09 287.1 165.384L289.689 170.162L286.151 167.626C285.877 168.705 285.818 169.85 285.98 170.963V170.963Z" stroke="#3F3D56" stroke-miterlimit="10"/>
<path d="M2.51567 160.98C3.07141 161.228 3.66649 161.314 4.25399 161.232C4.84149 161.149 5.40536 160.901 5.90116 160.506C6.39695 160.111 6.81112 159.58 7.111 158.955C7.41089 158.33 7.58831 157.628 7.62927 156.905C7.67024 156.182 7.57362 155.457 7.34705 154.787C7.12047 154.118 6.77013 153.522 6.32364 153.046C5.87715 152.571 5.3467 152.229 4.77412 152.048C4.20154 151.867 3.60248 151.852 3.02414 152.003L3.11971 154.412L2.18992 152.347C1.27738 152.873 0.572408 153.821 0.229919 154.984C0.108287 155.391 0.0343439 155.817 0.0102954 156.25C-0.0483935 157.265 0.164436 158.276 0.616532 159.13C1.06863 159.983 1.73535 160.633 2.51567 160.98V160.98Z" fill="#57B894"/>
<path d="M7.11577 188.925C6.78755 186.876 8.20978 185.059 9.61462 183.879C11.0195 182.698 12.6609 181.538 13.1403 179.534C13.8291 176.654 11.7772 174.017 10.1801 171.742C8.99514 170.054 7.97759 168.2 7.14868 166.219C6.7883 165.441 6.54285 164.59 6.42361 163.707C6.29768 162.431 6.63219 161.161 6.9692 159.943C8.09187 155.887 9.29219 151.865 10.5702 147.876" stroke="#3F3D56" stroke-miterlimit="10"/>
<path d="M2.67238 160.36C3.22812 160.608 3.8232 160.694 4.4107 160.611C4.9982 160.529 5.56207 160.281 6.05786 159.886C6.55365 159.49 6.96782 158.959 7.2677 158.335C7.56759 157.71 7.74501 157.008 7.78597 156.285C7.82693 155.562 7.73032 154.837 7.50375 154.167C7.27718 153.497 6.92683 152.901 6.48034 152.426C6.03385 151.951 5.50341 151.609 4.93083 151.428C4.35825 151.247 3.75919 151.231 3.18085 151.382L3.27642 153.792L2.34663 151.727C1.43409 152.253 0.729116 153.201 0.386627 154.364C0.264996 154.771 0.191054 155.197 0.167004 155.63C0.108312 156.645 0.32114 157.656 0.773237 158.51C1.22533 159.363 1.89206 160.013 2.67238 160.36V160.36Z" stroke="#3F3D56" stroke-miterlimit="10"/>
<path d="M6.64909 147.044C6.86718 146.307 7.23323 145.648 7.7135 145.129C8.19377 144.61 8.77282 144.248 9.39727 144.076L9.71165 146.366L10.2945 143.961C11.1038 143.976 11.8883 144.305 12.5347 144.902C13.1812 145.499 13.6562 146.333 13.8912 147.282C14.1262 148.232 14.1089 149.248 13.842 150.185C13.575 151.122 13.0721 151.93 12.406 152.493C11.7398 153.057 10.9448 153.346 10.1357 153.32C9.32667 153.293 8.54543 152.952 7.90481 152.346C7.26418 151.739 6.79731 150.899 6.5716 149.946C6.34589 148.993 6.37303 147.977 6.64909 147.044V147.044Z" fill="#57B894"/>
<path d="M6.85874 146.217C7.07684 145.479 7.44289 144.821 7.92316 144.302C8.40343 143.783 8.98247 143.421 9.60693 143.249L9.9213 145.539L10.5042 143.134C11.3134 143.148 12.0979 143.478 12.7444 144.075C13.3909 144.672 13.8659 145.505 14.1009 146.455C14.3358 147.404 14.3186 148.421 14.0516 149.358C13.7846 150.294 13.2818 151.103 12.6156 151.666C11.9494 152.23 11.1544 152.519 10.3454 152.492C9.53633 152.466 8.75509 152.125 8.11446 151.518C7.47383 150.912 7.00696 150.072 6.78125 149.119C6.55555 148.166 6.58268 147.15 6.85874 146.217V146.217Z" stroke="#3F3D56" stroke-miterlimit="10"/>
<path d="M9.50982 171.789C10.3912 172.181 11.3594 172.161 12.2298 171.734C13.1003 171.307 13.8122 170.503 14.2298 169.474C14.6474 168.445 14.7415 167.263 14.4942 166.154C14.247 165.046 13.6755 164.087 12.8889 163.462L12.4411 165.31L12.1235 162.993C12.1204 162.991 12.1171 162.99 12.1138 162.988C11.6423 162.778 11.1418 162.684 10.6406 162.711C10.1395 162.738 9.6476 162.886 9.19311 163.146C8.73863 163.407 8.33043 163.774 7.99186 164.228C7.65328 164.682 7.39097 165.213 7.21991 165.791C7.04884 166.369 6.97238 166.983 6.9949 167.597C7.01741 168.212 7.13846 168.815 7.35112 169.372C7.56378 169.929 7.86389 170.429 8.23429 170.844C8.60469 171.258 9.03812 171.579 9.50982 171.789V171.789Z" fill="#57B894"/>
<path d="M9.69147 170.951C10.5728 171.343 11.541 171.324 12.4115 170.897C13.2819 170.47 13.9938 169.665 14.4114 168.636C14.829 167.607 14.9232 166.425 14.6759 165.316C14.4286 164.208 13.8572 163.249 13.0706 162.624L12.6227 164.473L12.3052 162.155C12.302 162.153 12.2988 162.152 12.2954 162.151C11.8241 161.941 11.3237 161.847 10.8228 161.875C10.322 161.902 9.83039 162.05 9.37621 162.311C8.45896 162.837 7.74966 163.788 7.40435 164.955C7.05904 166.122 7.10601 167.409 7.53493 168.534C7.96385 169.658 8.73958 170.528 9.69147 170.951V170.951Z" stroke="#3F3D56" stroke-miterlimit="10"/>
<path d="M5.53485 179.562C5.68639 180.62 6.12982 181.581 6.79076 182.285C7.45171 182.989 8.28997 183.392 9.16498 183.429C10.04 183.465 10.8985 183.131 11.5966 182.483C12.2947 181.835 12.7898 180.913 12.999 179.871C13.2082 178.828 13.1188 177.73 12.7456 176.759C12.3725 175.788 11.7383 175.004 10.9496 174.538C10.1608 174.072 9.26543 173.953 8.41352 174.2C7.56161 174.448 6.80501 175.047 6.27062 175.897L7.97176 179.036L5.64736 177.37C5.46714 178.079 5.42855 178.831 5.53485 179.562V179.562Z" fill="#57B894"/>
<path d="M5.69209 178.942C5.84364 179.999 6.28706 180.96 6.948 181.664C7.60895 182.368 8.44721 182.772 9.32222 182.808C10.1972 182.844 11.0558 182.511 11.7538 181.863C12.4519 181.215 12.9471 180.293 13.1563 179.25C13.3655 178.208 13.276 177.109 12.9029 176.138C12.5297 175.167 11.8956 174.383 11.1068 173.917C10.3181 173.452 9.42267 173.332 8.57076 173.58C7.71885 173.827 6.96225 174.426 6.42786 175.277L8.129 178.416L5.8046 176.75C5.62438 177.459 5.58579 178.211 5.69209 178.942V178.942Z" stroke="#3F3D56" stroke-miterlimit="10"/>
<path d="M134.293 116.774C136.915 116.774 139.04 113.402 139.04 109.243C139.04 105.084 136.915 101.712 134.293 101.712C131.672 101.712 129.547 105.084 129.547 109.243C129.547 113.402 131.672 116.774 134.293 116.774Z" fill="#2F2E41"/>
<path d="M160.122 116.945C162.744 116.945 164.869 113.573 164.869 109.414C164.869 105.255 162.744 101.883 160.122 101.883C157.5 101.883 155.375 105.255 155.375 109.414C155.375 113.573 157.5 116.945 160.122 116.945Z" fill="#2F2E41"/>
<path d="M156.492 131.666C156.492 135.068 152.616 137.828 147.836 137.828C143.056 137.828 139.18 135.068 139.18 131.666C139.18 128.718 142.087 126.253 145.971 125.651C146.589 125.551 147.212 125.502 147.836 125.504C148.881 125.499 149.923 125.637 150.944 125.914C154.188 126.801 156.492 129.043 156.492 131.666Z" fill="#2F2E41"/>
<path d="M135.41 115.063C138.032 115.063 140.157 111.691 140.157 107.531C140.157 103.372 138.032 100 135.41 100C132.789 100 130.663 103.372 130.663 107.531C130.663 111.691 132.789 115.063 135.41 115.063Z" stroke="#3F3D56" stroke-miterlimit="10"/>
<path d="M161.239 115.234C163.861 115.234 165.986 111.862 165.986 107.702C165.986 103.543 163.861 100.171 161.239 100.171C158.617 100.171 156.492 103.543 156.492 107.702C156.492 111.862 158.617 115.234 161.239 115.234Z" stroke="#3F3D56" stroke-miterlimit="10"/>
<path d="M148.953 136.116C153.734 136.116 157.609 133.357 157.609 129.954C157.609 126.551 153.734 123.792 148.953 123.792C144.172 123.792 140.297 126.551 140.297 129.954C140.297 133.357 144.172 136.116 148.953 136.116Z" stroke="#3F3D56" stroke-miterlimit="10"/>
<path d="M151.047 126.428C151.049 126.858 150.918 127.274 150.679 127.589C150.566 127.74 150.428 127.861 150.276 127.944C150.123 128.027 149.958 128.07 149.791 128.071H146.998C146.654 128.056 146.329 127.875 146.093 127.567C145.858 127.259 145.732 126.85 145.742 126.428C145.74 126.094 145.82 125.767 145.971 125.489C146.589 125.383 147.212 125.33 147.836 125.332C148.882 125.328 149.925 125.475 150.944 125.771C151.013 125.979 151.048 126.203 151.047 126.428V126.428Z" fill="white"/>
<path d="M135.41 107.189C136.181 107.189 136.806 106.423 136.806 105.477C136.806 104.532 136.181 103.766 135.41 103.766C134.639 103.766 134.014 104.532 134.014 105.477C134.014 106.423 134.639 107.189 135.41 107.189Z" fill="white"/>
<path d="M161.379 107.189C162.15 107.189 162.775 106.423 162.775 105.477C162.775 104.532 162.15 103.766 161.379 103.766C160.607 103.766 159.982 104.532 159.982 105.477C159.982 106.423 160.607 107.189 161.379 107.189Z" fill="white"/>
<path opacity="0.3" d="M162.775 123.278C163.546 123.278 164.171 122.512 164.171 121.567C164.171 120.621 163.546 119.855 162.775 119.855C162.004 119.855 161.379 120.621 161.379 121.567C161.379 122.512 162.004 123.278 162.775 123.278Z" fill="#61CE70"/>
<path opacity="0.3" d="M128.709 123.278C129.48 123.278 130.105 122.512 130.105 121.567C130.105 120.621 129.48 119.855 128.709 119.855C127.938 119.855 127.313 120.621 127.313 121.567C127.313 122.512 127.938 123.278 128.709 123.278Z" fill="#61CE70"/>
</g>
<defs>
<clipPath id="clip0">
<rect width="300" height="200" fill="white"/>
</clipPath>
</defs>
</svg>
