<svg width="500" height="350" viewBox="0 0 500 350" fill="none" xmlns="http://www.w3.org/2000/svg">
<g clip-path="url(#clip0)">
<path d="M251.604 350C387.184 350 497.092 340.633 497.092 329.079C497.092 317.525 387.184 308.158 251.604 308.158C116.025 308.158 6.1167 317.525 6.1167 329.079C6.1167 340.633 116.025 350 251.604 350Z" fill="#F2F2F2"/>
<path d="M242.195 100.052C202.199 100.052 173.482 133.085 173.482 210.161C173.482 297.515 202.199 320.638 242.195 320.638C282.192 320.638 312.62 295.312 312.62 210.161C312.62 119.137 282.192 100.052 242.195 100.052ZM242.458 291.642C214.756 291.642 200.283 270.721 200.283 210.218C200.283 156.833 215.348 128.68 243.051 128.68C270.753 128.68 285.819 147.172 285.819 210.218C285.819 269.195 270.161 291.642 242.458 291.642Z" fill="#2F2E41"/>
<path d="M149.532 259.71H132.995V197.023C132.995 193.694 131.967 190.5 130.138 188.146C128.309 185.792 125.829 184.469 123.242 184.469H119.367C118.087 184.469 116.819 184.794 115.635 185.425C114.452 186.056 113.377 186.98 112.471 188.146C111.566 189.312 110.847 190.696 110.357 192.219C109.867 193.742 109.615 195.375 109.615 197.023V259.71H62.97C62.0104 259.71 61.0671 259.391 60.2316 258.784C59.3961 258.176 58.6968 257.301 58.2015 256.243C57.7062 255.185 57.4317 253.98 57.4047 252.745C57.3777 251.51 57.5991 250.288 58.0473 249.195L107.416 128.912C108.031 127.413 108.404 125.768 108.513 124.078C108.621 122.387 108.462 120.686 108.045 119.077C107.628 117.468 106.963 115.985 106.088 114.716C105.214 113.447 104.149 112.42 102.957 111.695L100.043 109.924C97.7801 108.548 95.193 108.345 92.8169 109.356C90.4409 110.368 88.4578 112.516 87.278 115.357L27.0665 260.354C26.0412 262.823 25.5048 265.579 25.5048 268.379V268.379C25.5048 270.615 25.8469 272.828 26.5114 274.894C27.176 276.959 28.1501 278.836 29.3781 280.416C30.606 281.997 32.0639 283.251 33.6683 284.107C35.2727 284.962 36.9923 285.402 38.729 285.402H109.615V325.042C109.615 327.018 109.917 328.975 110.505 330.801C111.092 332.626 111.953 334.285 113.039 335.683C114.124 337.08 115.413 338.188 116.831 338.945C118.25 339.701 119.77 340.09 121.305 340.09H121.305C122.84 340.09 124.36 339.701 125.778 338.945C127.197 338.188 128.485 337.08 129.571 335.683C130.656 334.285 131.517 332.626 132.105 330.801C132.692 328.975 132.995 327.018 132.995 325.042V285.403H149.532C152.178 285.403 154.717 284.049 156.588 281.64C158.459 279.231 159.511 275.963 159.511 272.556V272.556C159.511 269.149 158.459 265.882 156.588 263.473C154.717 261.064 152.178 259.71 149.532 259.71V259.71Z" fill="#61CE70"/>
<path d="M455.75 259.71H439.213V197.023C439.213 193.694 438.185 190.5 436.356 188.146C434.527 185.792 432.047 184.469 429.46 184.469H425.585C424.305 184.469 423.037 184.794 421.853 185.425C420.67 186.056 419.595 186.98 418.69 188.146C417.784 189.312 417.066 190.696 416.575 192.219C416.085 193.742 415.833 195.375 415.833 197.023V259.71H369.188C368.228 259.71 367.285 259.391 366.45 258.784C365.614 258.176 364.915 257.301 364.42 256.243C363.924 255.185 363.65 253.98 363.623 252.745C363.596 251.51 363.817 250.288 364.265 249.195L413.634 128.912C414.25 127.413 414.623 125.768 414.731 124.078C414.839 122.387 414.68 120.686 414.263 119.077C413.846 117.468 413.181 115.985 412.306 114.716C411.432 113.447 410.367 112.42 409.176 111.695L406.261 109.924C403.998 108.548 401.411 108.345 399.035 109.356C396.659 110.368 394.676 112.516 393.496 115.357L333.285 260.354C332.259 262.823 331.723 265.579 331.723 268.379V268.379C331.723 272.894 333.116 277.224 335.596 280.416C338.076 283.609 341.44 285.402 344.947 285.402H415.833V325.042C415.833 329.033 417.065 332.86 419.257 335.683C421.449 338.505 424.423 340.09 427.523 340.09V340.09C430.623 340.09 433.597 338.505 435.789 335.683C437.981 332.86 439.213 329.033 439.213 325.042V285.403H455.75C458.396 285.403 460.935 284.049 462.806 281.64C464.678 279.231 465.729 275.963 465.729 272.556V272.556C465.729 269.149 464.678 265.882 462.806 263.473C460.935 261.064 458.396 259.71 455.75 259.71Z" fill="#61CE70"/>
<path d="M154.094 252.37H137.557V189.683C137.557 188.034 137.304 186.401 136.814 184.878C136.324 183.355 135.606 181.971 134.7 180.805C133.795 179.64 132.72 178.715 131.536 178.084C130.353 177.453 129.085 177.128 127.804 177.128H123.929C121.343 177.128 118.862 178.451 117.033 180.805C115.204 183.16 114.177 186.353 114.177 189.683V252.37H67.5319C66.5723 252.37 65.629 252.05 64.7935 251.443C63.958 250.835 63.2587 249.96 62.7634 248.902C62.2681 247.844 61.9936 246.639 61.9666 245.404C61.9396 244.17 62.161 242.947 62.6093 241.855L111.978 121.572C112.593 120.072 112.966 118.427 113.075 116.737C113.183 115.047 113.024 113.346 112.607 111.737C112.19 110.128 111.525 108.644 110.65 107.375C109.776 106.107 108.711 105.079 107.519 104.355L104.605 102.583C102.342 101.208 99.7549 101.004 97.3789 102.016C95.0028 103.027 93.0197 105.176 91.8399 108.017L31.6285 253.013C30.6031 255.482 30.0667 258.239 30.0667 261.039C30.0667 265.553 31.46 269.883 33.94 273.076C36.42 276.268 39.7836 278.062 43.2909 278.062H114.177V317.701C114.177 319.677 114.479 321.634 115.067 323.46C115.654 325.286 116.515 326.945 117.601 328.342C118.686 329.739 119.975 330.848 121.393 331.604C122.812 332.36 124.332 332.75 125.867 332.75C128.967 332.75 131.941 331.164 134.133 328.342C136.325 325.52 137.557 321.692 137.557 317.701V278.062H154.094C155.404 278.062 156.702 277.73 157.912 277.084C159.123 276.438 160.223 275.492 161.15 274.299C162.077 273.107 162.812 271.69 163.313 270.132C163.815 268.573 164.073 266.903 164.073 265.216C164.073 263.529 163.815 261.858 163.313 260.3C162.812 258.741 162.077 257.325 161.15 256.132C160.223 254.939 159.123 253.993 157.912 253.348C156.702 252.702 155.404 252.37 154.094 252.37Z" stroke="#3F3D56" stroke-miterlimit="10"/>
<path d="M464.303 252.37H447.766V189.683C447.766 186.353 446.739 183.16 444.91 180.805C443.081 178.451 440.601 177.128 438.014 177.128H434.139C432.858 177.128 431.59 177.453 430.407 178.084C429.224 178.715 428.149 179.64 427.243 180.805C426.337 181.971 425.619 183.355 425.129 184.878C424.639 186.401 424.387 188.034 424.387 189.683V252.37H377.742C376.782 252.37 375.839 252.05 375.003 251.443C374.168 250.835 373.468 249.96 372.973 248.902C372.478 247.844 372.203 246.639 372.176 245.404C372.149 244.17 372.371 242.947 372.819 241.855L422.188 121.572C422.803 120.072 423.176 118.427 423.284 116.737C423.392 115.047 423.233 113.346 422.817 111.737C422.4 110.128 421.734 108.644 420.86 107.375C419.986 106.107 418.92 105.079 417.729 104.355L414.815 102.583C412.552 101.208 409.965 101.004 407.589 102.016C405.213 103.027 403.229 105.176 402.05 108.017L341.838 253.013C340.813 255.482 340.276 258.239 340.276 261.039C340.276 265.553 341.67 269.883 344.15 273.076C346.63 276.268 349.993 278.062 353.501 278.062H424.387V317.701C424.387 321.692 425.618 325.52 427.811 328.342C430.003 331.164 432.976 332.75 436.077 332.75V332.75C439.177 332.75 442.15 331.164 444.343 328.342C446.535 325.52 447.766 321.692 447.766 317.701V278.062H464.303C465.614 278.062 466.911 277.73 468.122 277.084C469.333 276.438 470.433 275.492 471.36 274.299C472.286 273.107 473.021 271.69 473.523 270.132C474.024 268.573 474.282 266.903 474.282 265.216V265.216C474.282 261.809 473.231 258.541 471.36 256.132C469.488 253.723 466.95 252.37 464.303 252.37V252.37Z" stroke="#3F3D56" stroke-miterlimit="10"/>
<path d="M251.319 93.4453C211.323 93.4453 182.606 126.478 182.606 203.555C182.606 290.908 211.323 314.031 251.319 314.031C291.316 314.031 321.744 288.706 321.744 203.555C321.744 112.531 291.316 93.4453 251.319 93.4453ZM251.582 285.036C223.88 285.036 209.407 264.114 209.407 203.611C209.407 150.226 224.472 122.074 252.175 122.074C279.877 122.074 294.943 140.566 294.943 203.611C294.943 262.589 279.285 285.036 251.582 285.036V285.036Z" stroke="#3F3D56" stroke-miterlimit="10"/>
<path d="M284.387 80.1302C284.387 80.1302 285.9 85.7446 287.286 84.2497L286.181 76.9111L284.387 80.1302Z" fill="#FBBEBE"/>
<path d="M468.574 251.343C469.984 252.003 471.493 252.232 472.983 252.013C474.474 251.793 475.904 251.131 477.162 250.079C478.419 249.026 479.47 247.612 480.231 245.948C480.992 244.284 481.442 242.415 481.545 240.489C481.649 238.562 481.404 236.631 480.83 234.848C480.255 233.064 479.366 231.477 478.233 230.211C477.101 228.945 475.755 228.034 474.303 227.552C472.85 227.07 471.331 227.028 469.864 227.431L470.106 233.848L467.747 228.348C465.433 229.748 463.644 232.274 462.775 235.371C462.467 236.456 462.279 237.591 462.218 238.744C462.069 241.448 462.609 244.141 463.756 246.414C464.903 248.688 466.594 250.418 468.574 251.343V251.343Z" fill="#57B894"/>
<path d="M480.244 325.775C479.412 320.317 483.019 315.478 486.583 312.333C490.147 309.188 494.311 306.098 495.527 300.761C497.274 293.09 492.069 286.066 488.017 280.008C485.012 275.512 482.43 270.574 480.328 265.296C479.485 263.18 478.71 260.968 478.488 258.607C478.169 255.207 479.018 251.823 479.872 248.58C482.72 237.776 485.765 227.062 489.007 216.439" stroke="#3F3D56" stroke-miterlimit="10"/>
<path d="M468.973 249.691C470.382 250.351 471.892 250.58 473.382 250.36C474.873 250.141 476.303 249.479 477.561 248.427C478.818 247.374 479.869 245.96 480.63 244.296C481.39 242.632 481.84 240.763 481.944 238.836C482.048 236.91 481.803 234.979 481.228 233.195C480.654 231.412 479.765 229.824 478.632 228.558C477.5 227.292 476.154 226.382 474.702 225.9C473.249 225.417 471.73 225.376 470.263 225.778L470.505 232.196L468.146 226.696C465.831 228.096 464.043 230.622 463.174 233.719C462.866 234.804 462.678 235.939 462.617 237.092C462.468 239.796 463.008 242.488 464.155 244.762C465.302 247.035 466.993 248.766 468.973 249.691V249.691Z" stroke="#3F3D56" stroke-miterlimit="10"/>
<path d="M479.06 214.223C479.614 212.258 480.542 210.504 481.761 209.122C482.979 207.74 484.448 206.776 486.032 206.317L486.829 212.418L488.308 206.01C490.361 206.049 492.351 206.927 493.991 208.517C495.631 210.107 496.836 212.327 497.432 214.856C498.028 217.385 497.984 220.093 497.307 222.588C496.629 225.083 495.354 227.236 493.664 228.737C491.974 230.238 489.957 231.009 487.905 230.938C485.853 230.867 483.871 229.959 482.246 228.344C480.621 226.728 479.436 224.49 478.864 221.952C478.291 219.414 478.36 216.708 479.06 214.223H479.06Z" fill="#57B894"/>
<path d="M479.592 212.02C480.146 210.055 481.074 208.301 482.292 206.919C483.511 205.538 484.98 204.573 486.564 204.114L487.361 210.215L488.84 203.807C490.892 203.846 492.883 204.724 494.522 206.314C496.162 207.904 497.367 210.124 497.963 212.653C498.559 215.182 498.516 217.89 497.839 220.385C497.161 222.88 495.886 225.033 494.196 226.534C492.506 228.035 490.489 228.806 488.437 228.735C486.385 228.664 484.403 227.756 482.778 226.141C481.153 224.526 479.968 222.287 479.396 219.749C478.823 217.211 478.892 214.505 479.592 212.02H479.592Z" stroke="#3F3D56" stroke-miterlimit="10"/>
<path d="M486.317 280.132C488.553 281.175 491.009 281.124 493.217 279.987C495.425 278.849 497.231 276.706 498.291 273.965C499.35 271.224 499.589 268.077 498.961 265.124C498.334 262.171 496.885 259.618 494.889 257.952L493.753 262.876L492.948 256.703C492.94 256.698 492.931 256.694 492.923 256.691C491.727 256.132 490.457 255.881 489.186 255.954C487.915 256.026 486.668 256.42 485.515 257.114C484.362 257.807 483.327 258.786 482.468 259.994C481.609 261.203 480.944 262.618 480.51 264.157C480.076 265.697 479.882 267.332 479.939 268.968C479.996 270.604 480.303 272.21 480.843 273.693C481.382 275.177 482.143 276.509 483.082 277.614C484.022 278.718 485.121 279.574 486.317 280.132H486.317Z" fill="#57B894"/>
<path d="M486.778 277.9C489.014 278.944 491.47 278.893 493.678 277.755C495.886 276.618 497.692 274.475 498.751 271.734C499.811 268.993 500.049 265.846 499.422 262.892C498.795 259.939 497.345 257.387 495.35 255.721L494.214 260.645L493.408 254.472C493.4 254.467 493.392 254.463 493.384 254.46C492.188 253.9 490.918 253.65 489.647 253.722C488.376 253.795 487.128 254.189 485.976 254.882C484.823 255.575 483.788 256.554 482.929 257.763C482.07 258.972 481.405 260.386 480.971 261.926C480.537 263.466 480.343 265.1 480.4 266.736C480.457 268.373 480.764 269.978 481.303 271.462C481.843 272.945 482.604 274.278 483.543 275.382C484.483 276.487 485.582 277.343 486.778 277.9H486.778Z" stroke="#3F3D56" stroke-miterlimit="10"/>
<path d="M476.234 300.837C476.618 303.653 477.743 306.213 479.42 308.088C481.096 309.963 483.223 311.039 485.442 311.135C487.662 311.231 489.84 310.342 491.611 308.616C493.382 306.891 494.638 304.434 495.168 301.658C495.699 298.882 495.472 295.955 494.526 293.369C493.579 290.783 491.97 288.694 489.97 287.453C487.969 286.213 485.697 285.895 483.536 286.554C481.375 287.214 479.456 288.809 478.1 291.074L482.416 299.435L476.519 294.997C476.062 296.886 475.964 298.889 476.234 300.837V300.837Z" fill="#57B894"/>
<path d="M476.633 299.185C477.017 302.001 478.142 304.561 479.819 306.436C481.495 308.311 483.622 309.386 485.841 309.483C488.061 309.579 490.239 308.69 492.01 306.964C493.78 305.239 495.037 302.782 495.567 300.006C496.098 297.23 495.871 294.303 494.924 291.717C493.978 289.131 492.369 287.042 490.368 285.801C488.368 284.56 486.096 284.243 483.935 284.902C481.774 285.561 479.855 287.157 478.499 289.422L482.815 297.783L476.918 293.345C476.461 295.234 476.363 297.237 476.633 299.185V299.185Z" stroke="#3F3D56" stroke-miterlimit="10"/>
<path d="M4.19228 281.716C5.11853 282.149 6.11032 282.3 7.08949 282.156C8.06866 282.012 9.00845 281.577 9.83477 280.885C10.6611 280.194 11.3514 279.265 11.8512 278.171C12.351 277.078 12.6467 275.85 12.715 274.584C12.7832 273.319 12.6222 272.05 12.2446 270.878C11.867 269.706 11.2831 268.663 10.5389 267.831C9.79475 267 8.91068 266.402 7.95638 266.085C7.00208 265.768 6.00363 265.74 5.03974 266.005L5.19903 270.221L3.64937 266.608C2.12848 267.528 0.95352 269.187 0.382706 271.222C0.179985 271.935 0.0567465 272.681 0.0166656 273.438C-0.0811492 275.214 0.273567 276.984 1.02706 278.477C1.78055 279.971 2.89176 281.108 4.19228 281.716V281.716Z" fill="#57B894"/>
<path d="M11.8596 330.619C11.3126 327.033 13.683 323.854 16.0244 321.787C18.3658 319.721 21.1015 317.691 21.9004 314.184C23.0486 309.145 19.6286 304.529 16.9668 300.549C14.9919 297.595 13.296 294.351 11.9145 290.883C11.3138 289.521 10.9047 288.033 10.706 286.488C10.4961 284.254 11.0537 282.031 11.6153 279.9C13.4864 272.802 15.487 265.763 17.617 258.783" stroke="#3F3D56" stroke-miterlimit="10"/>
<path d="M4.45396 280.63C5.3802 281.064 6.372 281.214 7.35117 281.07C8.33034 280.926 9.27012 280.491 10.0964 279.8C10.9228 279.108 11.613 278.179 12.1128 277.086C12.6127 275.992 12.9083 274.764 12.9766 273.499C13.0449 272.233 12.8839 270.964 12.5062 269.792C12.1286 268.621 11.5447 267.578 10.8006 266.746C10.0564 265.914 9.17235 265.316 8.21805 264.999C7.26375 264.682 6.26531 264.655 5.30142 264.919L5.4607 269.136L3.91105 265.522C2.39015 266.442 1.21519 268.102 0.644379 270.136C0.441661 270.849 0.318424 271.595 0.278341 272.352C0.180519 274.129 0.535233 275.898 1.28873 277.392C2.04222 278.886 3.15343 280.022 4.45396 280.63V280.63Z" stroke="#3F3D56" stroke-miterlimit="10"/>
<path d="M11.0818 257.327C11.4453 256.036 12.0554 254.884 12.8558 253.976C13.6563 253.068 14.6214 252.434 15.6621 252.133L16.1861 256.141L17.1575 251.931C18.5062 251.957 19.8137 252.534 20.8912 253.578C21.9687 254.623 22.7604 256.082 23.152 257.743C23.5436 259.405 23.5149 261.184 23.0699 262.823C22.625 264.462 21.7869 265.877 20.6766 266.863C19.5663 267.849 18.2413 268.356 16.8929 268.309C15.5444 268.263 14.2424 267.666 13.1747 266.605C12.107 265.544 11.3288 264.073 10.9527 262.406C10.5765 260.738 10.6217 258.96 11.0818 257.327V257.327Z" fill="#57B894"/>
<path d="M11.4312 255.88C11.7947 254.589 12.4048 253.436 13.2053 252.529C14.0057 251.621 14.9708 250.987 16.0115 250.685L16.5355 254.694L17.5069 250.484C18.8557 250.51 20.1632 251.086 21.2407 252.131C22.3181 253.176 23.1098 254.634 23.5014 256.296C23.893 257.958 23.8643 259.736 23.4194 261.376C22.9744 263.015 22.1363 264.43 21.026 265.416C19.9157 266.402 18.5907 266.908 17.2423 266.862C15.8939 266.815 14.5918 266.218 13.5241 265.157C12.4564 264.096 11.6783 262.626 11.3021 260.958C10.9259 259.291 10.9711 257.512 11.4312 255.88V255.88Z" stroke="#3F3D56" stroke-miterlimit="10"/>
<path d="M15.8497 300.63C17.3186 301.316 18.9322 301.282 20.383 300.535C21.8338 299.788 23.0203 298.38 23.7163 296.579C24.4123 294.778 24.5692 292.71 24.1571 290.77C23.7449 288.83 22.7926 287.152 21.4815 286.058L20.7351 289.293L20.2058 285.238C20.2006 285.234 20.1952 285.232 20.1896 285.23C19.4039 284.862 18.5696 284.697 17.7344 284.744C16.8991 284.792 16.0793 285.051 15.3218 285.506C14.5644 285.962 13.884 286.605 13.3198 287.399C12.7555 288.193 12.3183 289.123 12.0332 290.134C11.7481 291.146 11.6206 292.22 11.6582 293.295C11.6957 294.371 11.8974 295.426 12.2519 296.4C12.6063 297.375 13.1065 298.25 13.7238 298.976C14.3411 299.702 15.0635 300.264 15.8497 300.63V300.63Z" fill="#57B894"/>
<path d="M16.1525 299.164C17.6214 299.85 19.235 299.816 20.6858 299.069C22.1366 298.322 23.323 296.914 24.0191 295.113C24.7151 293.312 24.872 291.244 24.4598 289.304C24.0477 287.364 23.0953 285.686 21.7843 284.592L21.0379 287.827L20.5086 283.771C20.5034 283.768 20.4979 283.766 20.4924 283.764C19.7068 283.397 18.8729 283.233 18.0381 283.281C17.2033 283.329 16.384 283.588 15.627 284.044C14.0983 284.964 12.9161 286.628 12.3406 288.671C11.7651 290.713 11.8434 292.966 12.5582 294.934C13.2731 296.902 14.566 298.423 16.1525 299.164V299.164Z" stroke="#3F3D56" stroke-miterlimit="10"/>
<path d="M9.22475 314.234C9.47732 316.084 10.2164 317.766 11.3179 318.998C12.4195 320.23 13.8166 320.937 15.275 321C16.7333 321.063 18.1642 320.479 19.3276 319.345C20.4911 318.212 21.3163 316.598 21.665 314.774C22.0137 312.95 21.8646 311.027 21.2427 309.328C20.6208 307.628 19.5639 306.256 18.2493 305.441C16.9347 304.626 15.4424 304.417 14.0225 304.85C12.6027 305.283 11.3417 306.332 10.451 307.82L13.2863 313.313L9.41226 310.397C9.11189 311.638 9.04758 312.954 9.22475 314.234V314.234Z" fill="#57B894"/>
<path d="M9.48682 313.149C9.73939 314.999 10.4784 316.681 11.58 317.913C12.6816 319.144 14.0787 319.851 15.537 319.914C16.9954 319.978 18.4262 319.394 19.5897 318.26C20.7532 317.126 21.5784 315.512 21.9271 313.688C22.2758 311.864 22.1267 309.941 21.5048 308.242C20.8828 306.543 19.826 305.171 18.5114 304.355C17.1968 303.54 15.7044 303.332 14.2846 303.765C12.8647 304.198 11.6038 305.246 10.7131 306.734L13.5483 312.227L9.67433 309.312C9.37396 310.553 9.30965 311.869 9.48682 313.149V313.149Z" stroke="#3F3D56" stroke-miterlimit="10"/>
<path d="M225.684 187.581C226.969 187.581 228.011 186.24 228.011 184.585C228.011 182.931 226.969 181.59 225.684 181.59C224.399 181.59 223.357 182.931 223.357 184.585C223.357 186.24 224.399 187.581 225.684 187.581Z" fill="white"/>
<path opacity="0.3" d="M271.291 215.737C272.576 215.737 273.618 214.396 273.618 212.742C273.618 211.088 272.576 209.747 271.291 209.747C270.006 209.747 268.964 211.088 268.964 212.742C268.964 214.396 270.006 215.737 271.291 215.737Z" fill="#61CE70"/>
<path opacity="0.3" d="M214.515 215.737C215.8 215.737 216.842 214.396 216.842 212.742C216.842 211.088 215.8 209.747 214.515 209.747C213.23 209.747 212.188 211.088 212.188 212.742C212.188 214.396 213.23 215.737 214.515 215.737Z" fill="#61CE70"/>
</g>
<defs>
<clipPath id="clip0">
<rect width="500" height="350" fill="white"/>
</clipPath>
</defs>
</svg>
